#!OML:ASF F:\VICON\USERDATA\INSTALL\rory3\rory3.ASF
:FULLY-SPECIFIED
:DEGREES
2222
root 0.299035 17.453 -0.14061 3.142 1.15779 -1.57407
lowerback -2.32297 -0.0641469 0.379516
upperback -4.51873 -0.0762573 0.338304
thorax -3.34159 -0.0438371 0.135789
lowerneck -16.69 -10.6228 -12.8055
upperneck 34.8872 -16.0516 10.2554
head 17.7234 -7.03708 3.42409
rclavicle -2.02512e-015 -4.37326e-015
rhumerus 38.5353 22.8455 -16.3191
rradius 111.706
rwrist -74.9693
rhand -5.07459 1.45035
rfingers 7.12502
rthumb 20.7217 -27.4633
lclavicle -2.02512e-015 -4.37326e-015
lhumerus 41.4185 -21.463 26.4657
lradius 112.302
lwrist 102.274
lhand -6.34681 35.2115
lfingers 7.12502
lthumb 19.4989 64.2537
rfemur 0 0 0
rtibia 0
rfoot 0 0
rtoes 0
lfemur -4.33926 -17.1588 -17.7582
ltibia 16.2852
lfoot -14.7736 13.5956
ltoes -15.3446
2223
root 0.298 17.4523 -0.139747 3.12151 1.17846 -1.60896
lowerback -2.31637 -0.054886 0.420515
upperback -4.52707 -0.0643002 0.320048
thorax -3.35404 -0.039576 0.0940084
lowerneck -16.6519 -10.6228 -12.8008
upperneck 34.9206 -16.077 10.286
head 17.7408 -7.04434 3.43426
rclavicle 1.9133e-015 -5.06901e-015
rhumerus 38.0343 21.2434 -18.2027
rradius 111.078
rwrist -74.7019
rhand -4.88557 1.81203
rfingers 7.12502
rthumb 20.9034 -27.0817
lclavicle 1.9133e-015 -5.06901e-015
lhumerus 41.2939 -20.0369 28.0825
lradius 111.782
lwrist 102.183
lhand -6.40629 35.1315
lfingers 7.12502
lthumb 19.4418 64.1796
rfemur 0 0 0
rtibia 0
rfoot 0 0
rtoes 0
lfemur -4.33085 -17.215 -17.7193
ltibia 16.3102
lfoot -14.8266 13.5084
ltoes -14.9419
2224
root 0.295741 17.4522 -0.138597 3.09476 1.17316 -1.6041
lowerback -2.29682 -0.0404221 0.384768
upperback -4.52112 -0.0454233 0.298601
thorax -3.35881 -0.0293603 0.0918591
lowerneck -16.6769 -10.6402 -12.7719
upperneck 34.953 -16.121 10.2939
head 17.7706 -7.05563 3.42243
rclavicle 4.22417e-016 5.06901e-015
rhumerus 37.6372 19.5192 -19.718
rradius 110.609
rwrist -74.6684
rhand -4.76718 2.08568
rfingers 7.12502
rthumb 21.0171 -26.7955
lclavicle 4.22417e-016 5.06901e-015
lhumerus 41.2591 -18.7484 29.5884
lradius 111.349
lwrist 102.099
lhand -6.38234 35.0232
lfingers 7.12502
lthumb 19.4648 64.0689
rfemur 0 0 0
rtibia 0
rfoot 0 0
rtoes 0
lfemur -4.32019 -17.1338 -17.7229
ltibia 16.3469
lfoot -14.7803 13.3626
ltoes -14.8981
2225
root 0.294349 17.4516 -0.137883 3.08538 1.15244 -1.60242
lowerback -2.28426 -0.0237512 0.380078
upperback -4.51609 -0.024045 0.263432
thorax -3.36063 -0.0191909 0.0581812
lowerneck -16.6771 -10.6493 -12.7293
upperneck 34.9249 -16.1678 10.345
head 17.7657 -7.0628 3.42685
rclavicle 4.50993e-015 7.25564e-015
rhumerus 37.3243 17.8799 -21.129
rradius 110.081
rwrist -74.5434
rhand -4.41216 2.1226
rfingers 7.12502
rthumb 21.3581 -26.7203
lclavicle 4.50993e-015 7.25564e-015
lhumerus 41.3257 -17.6233 30.6882
lradius 110.953
lwrist 101.97
lhand -6.13282 34.8192
lfingers 7.12502
lthumb 19.7047 63.8405
rfemur 0 0 0
rtibia 0
rfoot 0 0
rtoes 0
lfemur -4.31332 -17.0608 -17.725
ltibia 16.3673
lfoot -14.8026 13.4351
ltoes -15.1901
2226
root 0.293777 17.4517 -0.136751 3.0651 1.16123 -1.63667
lowerback -2.26408 -0.0241779 0.409767
upperback -4.52194 -0.0244687 0.263608
thorax -3.37811 -0.020411 0.0417629
lowerneck -16.6236 -10.6483 -12.749
upperneck 34.8953 -16.1797 10.3885
head 17.7469 -7.0677 3.44872
rclavicle -2.36057e-015 -4.37326e-015
rhumerus 37.0376 16.5453 -22.4418
rradius 109.635
rwrist -74.5662
rhand -4.18195 2.16743
rfingers 7.12502
rthumb 21.5792 -26.6503
lclavicle -2.36057e-015 -4.37326e-015
lhumerus 41.4052 -16.7676 31.4092
lradius 110.572
lwrist 101.687
lhand -5.55654 34.522
lfingers 7.12502
lthumb 20.2586 63.4855
rfemur 0 0 0
rtibia 0
rfoot 0 0
rtoes 0
lfemur -4.29229 -17.0662 -17.6923
ltibia 16.3854
lfoot -14.8301 13.5248
ltoes -15.4697
2227
root 0.292598 17.4525 -0.136578 3.0645 1.16486 -1.66955
lowerback -2.2554 -0.0320013 0.423048
upperback -4.52348 -0.0342785 0.285494
thorax -3.38463 -0.0253504 0.0569126
lowerneck -16.6191 -10.6406 -12.8042
upperneck 34.8613 -16.1599 10.4289
head 17.7363 -7.06258 3.48021
rclavicle -8.0632e-015 -8.54774e-015
rhumerus 36.9179 15.3631 -23.5125
rradius 109.231
rwrist -74.7164
rhand -3.99952 2.27519
rfingers 7.12502
rthumb 21.7544 -26.5223
lclavicle -8.0632e-015 -8.54774e-015
lhumerus 41.466 -16.084 32.003
lradius 110.334
lwrist 101.402
lhand -5.21644 34.5253
lfingers 7.12502
lthumb 20.5854 63.4538
rfemur 0 0 0
rtibia 0
rfoot 0 0
rtoes 0
lfemur -4.29885 -17.0775 -17.6523
ltibia 16.4151
lfoot -14.7665 13.478
ltoes -15.5448
2228
root 0.292225 17.4528 -0.135157 3.08945 1.19453 -1.70731
lowerback -2.28883 -0.0525202 0.447606
upperback -4.52527 -0.0615024 0.299988
thorax -3.36775 -0.0394693 0.0582287
lowerneck -16.6373 -10.6276 -12.8013
upperneck 34.8314 -16.1391 10.4435
head 17.7223 -7.05159 3.4897
rclavicle -4.05024e-015 -7.15625e-015
rhumerus 36.8779 14.3385 -24.3471
rradius 108.919
rwrist -74.9648
rhand -3.96833 2.434
rfingers 7.12502
rthumb 21.7844 -26.36
lclavicle -4.05024e-015 -7.15625e-015
lhumerus 41.518 -15.5906 32.3093
lradius 110.259
lwrist 101.254
lhand -5.30029 34.6239
lfingers 7.12502
lthumb 20.5049 63.5611
rfemur 0 0 0
rtibia 0
rfoot 0 0
rtoes 0
lfemur -4.33904 -17.0896 -17.5993
ltibia 16.445
lfoot -14.7606 13.3692
ltoes -15.2084
2229
root 0.291465 17.4519 -0.133439 3.09833 1.21846 -1.71205
lowerback -2.32786 -0.0652494 0.435079
upperback -4.50898 -0.0788944 0.29726
thorax -3.32887 -0.0477242 0.0624718
lowerneck -16.6716 -10.6279 -12.7835
upperneck 34.8098 -16.1326 10.4318
head 17.7139 -7.04675 3.48065
rclavicle -2.01269e-015 -1.19271e-015
rhumerus 36.8806 13.478 -25.0031
rradius 108.599
rwrist -75.1154
rhand -3.94948 2.55342
rfingers 7.12502
rthumb 21.8025 -26.2385
lclavicle -2.01269e-015 -1.19271e-015
lhumerus 41.6373 -15.2835 32.3447
lradius 110.209
lwrist 101.231
lhand -5.35684 34.7704
lfingers 7.12502
lthumb 20.4505 63.7134
rfemur 0 0 0
rtibia 0
rfoot 0 0
rtoes 0
lfemur -4.37024 -17.0832 -17.5868
ltibia 16.483
lfoot -14.7524 13.4754
ltoes -16.0252
2230
root 0.290175 17.4509 -0.131989 3.10074 1.23188 -1.67494
lowerback -2.33883 -0.0850203 0.356805
upperback -4.49073 -0.104974 0.311783
thorax -3.30358 -0.0578651 0.121335
lowerneck -16.7273 -10.6319 -12.8085
upperneck 34.7632 -16.1075 10.4145
head 17.6982 -7.03994 3.4785
rclavicle 1.35422e-015 -2.98177e-015
rhumerus 36.9805 12.7457 -25.4303
rradius 108.401
rwrist -75.216
rhand -3.94164 2.32652
rfingers 7.12502
rthumb 21.81 -26.4645
lclavicle 1.35422e-015 -2.98177e-015
lhumerus 41.7894 -15.1521 32.0866
lradius 110.233
lwrist 101.182
lhand -5.27895 34.7812
lfingers 7.12502
lthumb 20.5254 63.7162
rfemur 0 0 0
rtibia 0
rfoot 0 0
rtoes 0
lfemur -4.39433 -17.0869 -17.62
ltibia 16.5174
lfoot -14.7369 13.5968
ltoes -16.6606
2231
root 0.288462 17.4512 -0.129676 3.10781 1.23236 -1.74426
lowerback -2.37661 -0.0852126 0.398225
upperback -4.45503 -0.105213 0.331735
thorax -3.24532 -0.0588909 0.118513
lowerneck -16.7871 -10.642 -12.805
upperneck 34.6588 -16.1141 10.4506
head 17.6617 -7.03578 3.48661
rclavicle -3.10601e-016 5.1684e-015
rhumerus 37.0517 12.1546 -25.645
rradius 108.357
rwrist -75.2018
rhand -4.11078 1.89654
rfingers 7.12502
rthumb 21.6476 -26.9133
lclavicle -3.10601e-016 5.1684e-015
lhumerus 41.9758 -15.2207 31.5697
lradius 110.378
lwrist 101.095
lhand -5.27489 34.7195
lfingers 7.12502
lthumb 20.5293 63.6541
rfemur 0 0 0
rtibia 0
rfoot 0 0
rtoes 0
lfemur -4.39568 -17.0639 -17.5339
ltibia 16.5228
lfoot -14.7847 13.4682
ltoes -15.8319
2232
root 0.28558 17.4512 -0.12677 3.10956 1.2278 -1.74227
lowerback -2.40041 -0.0773774 0.355902
upperback -4.43408 -0.0951525 0.322155
thorax -3.21009 -0.0526254 0.13223
lowerneck -16.8377 -10.6651 -12.7413
upperneck 34.5878 -16.1387 10.4138
head 17.6263 -7.04034 3.44846
rclavicle -4.07509e-015 -7.7526e-015
rhumerus 37.0583 11.7751 -25.6914
rradius 108.363
rwrist -75.215
rhand -4.29742 1.6492
rfingers 7.12502
rthumb 21.4683 -27.1812
lclavicle -4.07509e-015 -7.7526e-015
lhumerus 42.1634 -15.4582 30.858
lradius 110.525
lwrist 101.008
lhand -5.14306 34.731
lfingers 7.12502
lthumb 20.656 63.6518
rfemur 0 0 0
rtibia 0
rfoot 0 0
rtoes 0
lfemur -4.37493 -17.0249 -17.5303
ltibia 16.5042
lfoot -14.8047 13.3255
ltoes -15.1878
2233
root 0.285531 17.4508 -0.125122 3.1211 1.2239 -1.70696
lowerback -2.39022 -0.0636152 0.299747
upperback -4.44008 -0.0764388 0.326734
thorax -3.22194 -0.0413846 0.16832
lowerneck -16.8973 -10.6878 -12.7704
upperneck 34.5714 -16.141 10.3841
head 17.6319 -7.04587 3.43549
rclavicle -2.37299e-015 -3.97569e-015
rhumerus 37.1118 11.5776 -25.4761
rradius 108.3
rwrist -75.2299
rhand -4.33111 1.69597
rfingers 7.12502
rthumb 21.436 -27.1381
lclavicle -2.37299e-015 -3.97569e-015
lhumerus 42.3375 -15.8251 30.0515
lradius 110.8
lwrist 100.92
lhand -5.13286 34.7885
lfingers 7.12502
lthumb 20.6658 63.7083
rfemur 0 0 0
rtibia 0
rfoot 0 0
rtoes 0
lfemur -4.37486 -17.0734 -17.5704
ltibia 16.4852
lfoot -14.7711 13.3608
ltoes -15.477
2234
root 0.285273 17.4507 -0.123358 3.11378 1.22236 -1.67601
lowerback -2.36336 -0.0811485 0.229833
upperback -4.43028 -0.098791 0.359761
thorax -3.22669 -0.0496995 0.241551
lowerneck -16.9946 -10.6753 -12.7766
upperneck 34.5395 -16.0758 10.3253
head 17.6192 -7.02349 3.4198
rclavicle 2.85753e-015 2.88238e-015
rhumerus 37.2102 11.5355 -25.0942
rradius 108.212
rwrist -75.1641
rhand -4.21217 1.67192
rfingers 7.12502
rthumb 21.5502 -27.1491
lclavicle 2.85753e-015 2.88238e-015
lhumerus 42.4245 -16.2417 29.1237
lradius 111.047
lwrist 100.8
lhand -4.9484 34.7443
lfingers 7.12502
lthumb 20.843 63.6447
rfemur 0 0 0
rtibia 0
rfoot 0 0
rtoes 0
lfemur -4.33447 -17.1222 -17.6137
ltibia 16.4412
lfoot -14.7273 13.4649
ltoes -16.1921
2235
root 0.285267 17.451 -0.120302 3.1235 1.19539 -1.68046
lowerback -2.37359 -0.0898158 0.210224
upperback -4.42895 -0.109348 0.401838
thorax -3.21942 -0.0535809 0.295813
lowerneck -17.058 -10.6703 -12.8422
upperneck 34.5092 -16.0278 10.3167
head 17.6168 -7.01103 3.4342
rclavicle -2.98177e-015 -9.0447e-015
rhumerus 37.2999 11.6571 -24.6075
rradius 108.189
rwrist -75.0309
rhand -4.14746 1.68897
rfingers 7.12502
rthumb 21.6124 -27.1249
lclavicle -2.98177e-015 -9.0447e-015
lhumerus 42.5225 -16.751 28.2117
lradius 111.3
lwrist 100.765
lhand -5.08298 34.8312
lfingers 7.12502
lthumb 20.7137 63.7457
rfemur 0 0 0
rtibia 0
rfoot 0 0
rtoes 0
lfemur -4.29748 -17.1627 -17.6137
ltibia 16.3945
lfoot -14.8502 13.5643
ltoes -15.8693
2236
root 0.285009 17.451 -0.116699 3.13074 1.18329 -1.68402
lowerback -2.42164 -0.0920189 0.204769
upperback -4.40606 -0.11254 0.405037
thorax -3.16861 -0.0549579 0.30202
lowerneck -17.1447 -10.681 -12.7611
upperneck 34.484 -16.0168 10.22
head 17.5986 -7.00453 3.37435
rclavicle 6.06293e-015 3.37934e-015
rhumerus 37.4267 11.8849 -23.9827
rradius 108.231
rwrist -74.9135
rhand -4.12372 1.7911
rfingers 7.12502
rthumb 21.6352 -27.0202
lclavicle 6.06293e-015 3.37934e-015
lhumerus 42.719 -17.3077 27.2582
lradius 111.64
lwrist 100.653
lhand -5.3888 35.0181
lfingers 7.12502
lthumb 20.4198 63.9644
rfemur 0 0 0
rtibia 0
rfoot 0 0
rtoes 0
lfemur -4.27732 -17.1889 -17.6152
ltibia 16.3794
lfoot -14.9448 13.6103
ltoes -15.6431
2237
root 0.28491 17.4512 -0.113371 3.13791 1.19623 -1.68406
lowerback -2.4558 -0.0794992 0.212245
upperback -4.39574 -0.0962349 0.397005
thorax -3.13877 -0.0471861 0.289431
lowerneck -17.1631 -10.6978 -12.7672
upperneck 34.4217 -16.0371 10.2415
head 17.5766 -7.01041 3.37736
rclavicle 1.06847e-015 6.75868e-015
rhumerus 37.4966 12.19 -23.2471
rradius 108.298
rwrist -74.7975
rhand -4.15435 1.82176
rfingers 7.12502
rthumb 21.6057 -26.9929
lclavicle 1.06847e-015 6.75868e-015
lhumerus 42.9318 -17.8437 26.2915
lradius 111.995
lwrist 100.455
lhand -5.46103 35.334
lfingers 7.12502
lthumb 20.3504 64.2878
rfemur 0 0 0
rtibia 0
rfoot 0 0
rtoes 0
lfemur -4.26971 -17.2165 -17.6138
ltibia 16.3809
lfoot -14.9543 13.53
ltoes -15.2782
